<!-- icon666.com - MILLIONS vector ICONS FREE --><svg id="Capa_1" enable-background="new 0 0 511.916 511.916" viewBox="0 0 511.916 511.916" xmlns="http://www.w3.org/2000/svg"><g><path d="m500.167 136.109c-7.667-8.163-18.013-13.146-29.135-14.032-3.155-.25-5.625-2.717-5.875-5.869-.887-11.132-5.867-21.48-14.022-29.141-16.763-15.745-44.999-15.642-61.661.229-14.436 13.768-18.104 34.961-9.125 52.745 1.854 3.665 1.219 8.009-1.582 10.81l-25.223 25.224c-2.192-3.143-4.689-6.078-7.491-8.772l-27.491-26.375c-2.989-2.867-7.737-2.77-10.604.22s-2.769 7.736.22 10.604l27.485 26.369c2.744 2.638 5.095 5.586 7.045 8.791l-48.559 48.56c-2.801 2.802-7.146 3.437-10.817 1.578-17.778-8.976-38.972-5.306-52.739 9.131-7.282 7.64-11.505 18.035-11.99 28.906h-66.779c-13.017 0-24.782-7.713-29.972-19.649-7.573-17.417-24.737-28.67-43.728-28.67h-6.864v-15.423c0-12.738 5.528-24.828 15.166-33.166l101.008-87.329c17.245-14.898 42.635-14.226 59.063 1.566l36.372 34.909c2.988 2.867 7.736 2.77 10.604-.218s2.771-7.736-.218-10.604l-36.368-34.905c-22.043-21.189-56.118-22.092-79.263-2.097l-101.011 87.33c-12.935 11.191-20.353 27.416-20.353 44.512v16.142c-22.4 3.897-39.49 23.466-39.49 46.965v92.053c0 11.208 4.261 21.438 11.247 29.16-15.946 3.124-28.017 17.2-28.017 34.046 0 9.442 7.682 17.124 17.124 17.124h452.491c9.442 0 17.124-7.682 17.124-17.124 0-16.847-12.071-30.922-28.016-34.047 6.985-7.722 11.247-17.952 11.247-29.16v-92.052c0-26.293-21.391-47.684-47.683-47.684h-4.191l18.299-18.299c2.798-2.799 7.146-3.431 10.816-1.578 17.785 8.979 38.976 5.313 52.729-9.121 15.879-16.659 15.982-44.897.227-61.659zm-45.199 138.341v92.053c0 15.67-12.707 28.424-28.357 28.508h-33.447c-4.142 0-7.5 3.357-7.5 7.5s3.358 7.5 7.5 7.5h33.216c.026 0 .051.004.077.004.052 0 .102-.004.154-.004h25.428c10.862 0 19.699 8.837 19.699 19.699 0 1.171-.953 2.124-2.124 2.124h-452.49c-1.171 0-2.124-.953-2.124-2.124 0-10.862 8.837-19.699 19.699-19.699h25.428c.052 0 .102.004.154.004.026 0 .051-.004.077-.004h297.725c4.142 0 7.5-3.357 7.5-7.5s-3.358-7.5-7.5-7.5h-297.956c-15.65-.084-28.357-12.838-28.357-28.508v-92.053c0-18.021 14.662-32.684 32.683-32.684h13.67c13.017 0 24.781 7.714 29.972 19.651 7.573 17.415 24.737 28.668 43.728 28.668h183.092c18.99 0 36.155-11.253 43.728-28.669 5.19-11.937 16.955-19.65 29.972-19.65h13.67c18.022 0 32.683 14.662 32.683 32.684zm34.112-87.031c-9.16 9.614-23.271 12.056-35.111 6.079-9.467-4.78-20.794-3.025-28.182 4.361l-30.931 30.931c-13.203 3.978-24.286 13.576-29.968 26.644-5.191 11.938-16.956 19.65-29.972 19.65h-101.305c.45-7.042 3.196-13.686 7.836-18.556 9.173-9.618 23.289-12.066 35.115-6.095 9.463 4.791 20.792 3.038 28.19-4.357l84.62-84.62c7.397-7.397 9.149-18.727 4.362-28.184-5.975-11.836-3.527-25.95 6.087-35.12 11.09-10.562 29.885-10.634 41.043-.153 5.088 4.633 9.028 12.8 9.479 20.523-5.992-1.573-11.938-3.719-16.142-6.563-3.43-2.319-8.094-1.422-10.415 2.009s-1.422 8.094 2.008 10.415c15.402 10.422 42.923 12.568 44.087 12.654.024.002.048.001.072.003 7.352.613 14.195 3.925 19.281 9.339 10.488 11.158 10.417 29.95-.154 41.04z"></path><path d="m288.526 308.654c-.187-.004-.372-.007-.558-.007-9.593 0-18.009 5.948-21.198 14.991h-46.803c-3.252-9.217-11.936-15.184-21.756-14.984-11.727.281-21.565 10.048-21.931 21.771-.158 5.07 1.384 9.999 4.367 14.044-2.983 4.046-4.525 8.974-4.367 14.043.366 11.724 10.204 21.49 21.931 21.771.187.004.372.007.558.007 9.593-.001 18.008-5.948 21.198-14.991h46.803c3.251 9.218 11.949 15.176 21.756 14.984 11.727-.281 21.565-10.048 21.931-21.771.159-5.07-1.384-9.999-4.367-14.044 2.983-4.046 4.525-8.974 4.367-14.044-.366-11.722-10.204-21.489-21.931-21.77zm5.159 44.298c1.206 1.414 1.838 3.223 1.78 5.092-.116 3.702-3.594 7.154-7.298 7.243-3.346.09-6.269-1.987-7.308-5.145-1.938-5.888-7.361-9.844-13.496-9.844h-47.989c-6.136 0-11.56 3.956-13.497 9.845-1.038 3.156-3.953 5.233-7.307 5.144-3.704-.089-7.182-3.541-7.297-7.243-.059-1.869.573-3.678 1.779-5.093 4.19-4.915 4.19-12.05 0-16.966-1.206-1.414-1.837-3.223-1.779-5.093.115-3.701 3.593-7.153 7.297-7.242 3.329-.113 6.27 1.986 7.308 5.143 1.936 5.889 7.36 9.846 13.497 9.846h47.989c6.135 0 11.559-3.956 13.497-9.845 1.039-3.157 3.988-5.257 7.307-5.144 3.704.089 7.183 3.541 7.298 7.243.058 1.869-.574 3.678-1.78 5.093-4.191 4.915-4.191 12.05-.001 16.966z"></path><path d="m93.973 191.722c-3.083 2.726-3.373 7.436-.647 10.519s7.436 3.373 10.519.647 3.373-7.436.647-10.519c-2.726-3.084-7.435-3.374-10.519-.647z"></path><ellipse cx="125.019" cy="174.221" rx="7.452" ry="7.452" transform="matrix(.061 -.998 .998 .061 -56.55 288.307)"></ellipse><path d="m156.064 156.721c3.083-2.726 3.373-7.436.647-10.519s-7.436-3.373-10.519-.647-3.373 7.436-.647 10.519 7.436 3.373 10.519.647z"></path><path d="m182.174 133.637c3.083-2.726 3.373-7.436.647-10.519s-7.436-3.373-10.519-.647-3.373 7.436-.647 10.519c2.726 3.084 7.435 3.373 10.519.647z"></path><path d="m208.283 110.554c3.083-2.726 3.373-7.436.647-10.519s-7.436-3.373-10.519-.647-3.373 7.436-.647 10.519 7.436 3.373 10.519.647z"></path><path d="m220.898 172.362c3.083-2.726 3.373-7.436.647-10.519s-7.435-3.373-10.519-.647c-3.083 2.726-3.373 7.436-.647 10.519s7.436 3.373 10.519.647z"></path><path d="m247.008 149.278c3.083-2.726 3.373-7.436.647-10.519s-7.436-3.373-10.519-.647-3.373 7.436-.647 10.519 7.435 3.373 10.519.647z"></path><ellipse cx="155.128" cy="181.97" rx="7.452" ry="7.452" transform="matrix(.359 -.933 .933 .359 -70.385 261.479)"></ellipse><path d="m186.174 164.469c3.083-2.726 3.373-7.435.647-10.519-2.726-3.083-7.436-3.373-10.519-.647s-3.373 7.436-.647 10.519c2.726 3.084 7.436 3.374 10.519.647z"></path><path d="m212.283 141.386c3.083-2.726 3.373-7.436.647-10.519s-7.436-3.373-10.519-.647-3.373 7.436-.647 10.519c2.727 3.083 7.436 3.373 10.519.647z"></path><path d="m239.04 107.784c-2.726-3.083-7.435-3.373-10.519-.647s-3.373 7.436-.647 10.519 7.436 3.373 10.519.647 3.373-7.436.647-10.519z"></path></g></svg>