<!-- icon666.com - MILLIONS vector ICONS FREE --><svg id="Layer_1" enable-background="new 0 0 512 512" viewBox="0 0 512 512" xmlns="http://www.w3.org/2000/svg"><g><path d="m152.172 54.928-35.776 18.589c-8.328 4.328-1.792 17.835 6.916 13.311l35.776-18.589c14.132-7.343 27.973 12.665 16.126 23.3l-39.193 35.189c-7.624 6.846-11.14 17.345-9.176 27.4 1.619 8.293-.533 16.789-5.905 23.312-5.372 6.522-13.298 10.263-21.748 10.263h-13.362c-38.579-.36-52.001-53.997-17.684-72.211l21.624-11.235c8.328-4.328 1.791-17.835-6.916-13.311l-21.682 11.266c-47.704 25.319-29.321 99.987 24.587 100.491h13.433c12.948 0 25.095-5.732 33.327-15.727s11.529-23.015 9.048-35.723c-.958-4.904.757-10.025 4.476-13.363l39.193-35.189c24.706-22.184-3.796-62.978-33.064-47.773z"></path><path d="m361.812 118.635c0-9.386-15-9.813-15 0 0 42.565-34.629 77.194-77.194 77.194-9.386 0-9.813 15 0 15 50.835 0 92.194-41.358 92.194-92.194z"></path><path d="m412.738 152.321h-26.755c3.187-10.807 4.843-22.136 4.843-33.728 0-65.392-53.201-118.593-118.594-118.593h-32.536c-29.563 0-59.015 5.922-86.288 17.235h-46.087c-9.55 0-17.321 7.771-17.321 17.322v15.189l-44.217 23.468c-28.24 14.988-45.783 44.16-45.783 76.131 0 22.869 8.864 44.412 24.96 60.658 16.095 16.247 37.554 25.313 60.426 25.526l185.737 1.653c.382.003.761.005 1.142.005 23.276 0 45.525-6.669 64.592-19.115h24.826c12.563 0 22.782-10.221 22.782-22.783v-.067h28.273c31.078 0 56.361 25.283 56.361 56.36s-25.283 56.36-56.361 56.36h-289.073c-45.166 0-83.762 38.589-83.761 83.761 0 45.173 38.594 83.761 83.761 83.761h197.325v3.182c0 7.195 5.854 13.049 13.05 13.049h25.481c7.195 0 13.05-5.854 13.05-13.049v-17.054h28.328l14.293 31.949c5.016 11.213 16.195 18.459 28.48 18.459 39.917 0 40.482-65.408.001-65.408h-28.941v-4.655c9.349-.074 9.717-14.997-.06-14.997h-14.267c-8.978 0-9.911 14.142-.674 14.966v4.686h-27.16v-17.054c0-7.195-5.854-13.05-13.05-13.05h-25.481c-7.195 0-13.05 5.854-13.05 13.05v3.025h-197.325c-51.338 0-51.361-81.721 0-81.721h289.073c27.511 0 54.046-11.608 72.801-31.849 6.379-6.884-4.333-17.394-11.002-10.195-15.926 17.187-38.451 27.044-61.799 27.044h-289.073c-70.62 0-70.907 111.721 0 111.721h204.748v12.9h-204.748c-36.928 0-68.761-31.837-68.761-68.761s31.83-68.761 68.761-68.761h289.073c39.349 0 71.361-32.012 71.361-71.36s-32.013-71.36-71.361-71.36h-28.273v-12.9h28.273c46.462 0 84.262 37.799 84.262 84.261 0 8.984-1.412 17.829-4.197 26.286-2.934 8.916 11.178 14.01 14.248 4.691 3.284-9.974 4.949-20.396 4.949-30.978 0-54.731-44.528-99.26-99.262-99.26zm30.935 309.271c21.365 0 20.44 34.37-.153 35.407-6.318-.06-12.051-3.808-14.635-9.583l-11.553-25.824zm-86.102-30.104v45.206h-21.581v-1.234c4.107-.042 7.423-3.38 7.423-7.496v-27.9c0-4.116-3.316-7.454-7.423-7.496v-1.079h21.581zm-252.571-396.931c0-1.28 1.042-2.321 2.322-2.321h15.669l-17.991 9.548zm167.257 187.631c-.331 0-.665-.002-.997-.005l-185.737-1.653c-38.887-.364-70.523-32.298-70.523-71.185v-.001c0-26.406 14.49-50.501 37.815-62.88l48.238-25.603c.012-.006.024-.013.036-.019l40.233-21.354c30.185-16.02 64.203-24.488 98.375-24.488h32.536c57.122 0 103.594 46.472 103.594 103.594 0 11.789-1.959 23.268-5.712 34.077-.163.366-.294.749-.397 1.144-5.149 14.283-13.459 27.359-24.576 38.372-4.502 4.46-9.342 8.451-14.455 11.962-.249.15-.489.313-.717.489-16.938 11.42-36.852 17.55-57.713 17.55zm97.208-26.899c0 4.292-3.491 7.783-7.782 7.783h-6.222c.078-.077.159-.152.237-.229 5.119-5.072 9.713-10.529 13.767-16.301v1.18z"></path></g></svg>