<!-- icon666.com - MILLIONS vector ICONS FREE --><svg version="1.1" id="Capa_1" xmlns="http://www.w3.org/2000/svg" xmlns:xlink="http://www.w3.org/1999/xlink" x="0px" y="0px" viewBox="0 0 512 512" style="enable-background:new 0 0 512 512;" xml:space="preserve"><g><g><path d="M350.73,485.91c-1.462-3.875-5.787-5.833-9.665-4.369C313.881,491.799,285.261,497,256,497 c-64.374,0-124.894-25.068-170.413-70.587C40.068,380.894,15,320.374,15,256c0-81.755,40.948-157.27,109.537-202.002 c3.469-2.263,4.448-6.909,2.185-10.379c-2.264-3.47-6.91-4.448-10.379-2.185C43.493,88.945,0,169.157,0,256 c0,68.38,26.629,132.667,74.98,181.019C123.333,485.371,187.62,512,256,512c31.077,0,61.479-5.526,90.361-16.425 C350.236,494.113,352.193,489.785,350.73,485.91z"></path></g></g><g><g><path d="M418.608,126.461c-1.332-1.669-3.312-2.692-5.443-2.812c-2.132-0.119-4.214,0.675-5.723,2.185L125.834,407.442 c-1.509,1.51-2.304,3.592-2.185,5.724c0.12,2.132,1.142,4.112,2.812,5.443C163.61,448.24,208.404,463.903,256,463.903 c114.638,0,207.903-93.265,207.903-207.903C463.903,208.405,448.24,163.611,418.608,126.461z M368.921,185.569 c-2.358,6.521-6.495,13.301-12.45,20.422c-1.031-1.645-2.104-3.232-3.225-4.747L368.921,185.569z M342.475,212.015 c0.258,0.378,0.52,0.752,0.772,1.14c1.861,2.866,3.487,5.892,4.899,9.003c1.655,3.662,3.091,7.608,4.285,11.795 c-0.305,0.425-0.611,0.848-0.931,1.267c-3.373,4.424-7.41,8.298-11.79,11.715c-14.17,11.054-31.652,17.503-49.109,21.107 c-1.7,0.351-3.406,0.67-5.117,0.964L342.475,212.015z M268.378,286.111c0.265-0.017,0.528-0.04,0.793-0.058 c20.004-1.364,40.224-5.786,58.52-14.367c10.296-4.829,20.064-11.039,28.255-18.974c0.89,9.175,0.626,18.433-0.677,27.556 c-3.207,22.453-13.073,44.272-30.058,59.634c-18.845,17.044-44.221,23.905-69.211,23.905c-20.321,0-38.098-4.141-52.989-12.328 L268.378,286.111z M344.956,340.966c15.112,11.176,23.143,22.492,24.5,34.466c0.18,1.599-1,3.072-2.592,3.252 c-1.318,0.154-2.614-0.633-3.083-1.878c-4.196-11.129-13.319-20.191-27.16-27.001c0.121-0.116,0.239-0.236,0.361-0.351 C339.801,346.782,342.464,343.947,344.956,340.966z M256.002,448.902c-41.342,0-80.404-12.734-113.499-36.915l49.545-49.546 c17.886,10.852,39.357,16.366,63.952,16.366c29.687,0,51.466-8.028,67.244-18.448c0.474,0.164,0.936,0.33,1.362,0.502 c13.409,5.414,21.867,12.559,25.139,21.236c2.839,7.53,10.815,12.395,18.808,11.491c9.71-1.098,16.907-10.144,15.807-19.848 c-1.855-16.367-11.908-31.128-30.67-44.969c4.501-7.355,8.192-15.377,11.018-23.811c18.745-1.778,42.747-6.966,56.001-26.329 c5.588-8.163,3.493-19.351-4.671-24.939c-6.696-4.584-15.922-4.019-22,1.344c-5.318,4.691-12.906,7.174-22.615,7.408 c-0.076-9.773-1.243-19.529-3.587-28.938c-1.135-4.553-2.524-8.904-4.138-13.025c16.626-18.064,23.95-35.135,22.373-52.062 L411.99,142.5c24.181,33.096,36.915,72.157,36.915,113.499C448.905,362.366,362.369,448.902,256.002,448.902z M368.943,289.366 c0.775-3.92,1.373-7.893,1.789-11.902c13.799-0.139,24.976-3.897,33.228-11.178c0.974-0.859,2.498-0.972,3.604-0.215 c1.339,0.916,1.682,2.75,0.766,4.089C401.271,280.472,388.634,286.673,368.943,289.366z"></path></g></g><g><g><path d="M437.02,74.981C388.667,26.628,324.38,0,256,0c-39.232,0-76.892,8.652-111.935,25.717 c-3.724,1.814-5.273,6.303-3.459,10.027c1.813,3.724,6.303,5.272,10.027,3.459C183.612,23.143,219.063,15,256,15 c64.374,0,124.894,25.068,170.413,70.587C471.932,131.106,497,191.626,497,256c0,89.288-49.015,170.851-127.917,212.859 c-3.656,1.947-5.042,6.489-3.096,10.145c1.349,2.534,3.943,3.977,6.626,3.977c1.189,0,2.396-0.284,3.519-0.881 C459.938,437.481,512,350.844,512,256C512,187.62,485.371,123.333,437.02,74.981z"></path></g></g><g><g><path d="M388.349,98.834c-0.12-2.132-1.141-4.112-2.811-5.443C348.389,63.759,303.595,48.097,256,48.097 C141.362,48.097,48.097,141.362,48.097,256c0,47.595,15.663,92.389,45.294,129.538c1.332,1.669,3.312,2.692,5.443,2.812 c0.14,0.008,0.28,0.012,0.42,0.012c1.983,0,3.893-0.786,5.303-2.197l281.607-281.607 C387.674,103.048,388.469,100.966,388.349,98.834z M163.531,305.978c-1.324-3.295-2.481-6.681-3.481-10.13 c-0.003-0.011-0.004-0.023-0.008-0.034c-2.657-8.731-4.01-17.906-4.405-27.015c-0.233-5.381-0.104-10.779,0.418-16.117 c0.112,0.109,0.231,0.214,0.344,0.322c10.555,10.078,23.557,17.321,37.124,22.51c0.114,0.044,0.225,0.09,0.34,0.133 L163.531,305.978z M155.505,205.961c-10.919-13.066-15.716-24.989-14.631-36.254c0.144-1.491,1.425-2.66,2.916-2.66 c0.097,0,0.195,0.005,0.293,0.014c1.344,0.129,2.424,1.148,2.627,2.477c1.508,9.87,6.717,19.045,15.514,27.361 C159.816,199.637,157.569,202.661,155.505,205.961z M205.628,263.88c-0.027-0.009-0.053-0.017-0.08-0.025 c-16.229-5.211-32.531-13.528-43.595-26.826c-0.823-0.989-1.614-2.004-2.37-3.044c-0.006-0.008-0.011-0.016-0.017-0.024 c1.164-4.099,2.623-8.099,4.383-11.979c5.15-11.309,13.522-22.37,25.805-26.314c0.018,0.027,0.04,0.052,0.058,0.079 c1.159,1.753,2.86,3.122,4.458,4.458c13.553,11.336,31.379,16.337,48.692,17.973c2.61,0.247,5.238,0.418,7.858,0.511 L205.628,263.88z M266.144,203.363c-0.068,0.006-0.135,0.013-0.203,0.019c-20.954,1.653-47.204-0.468-63.258-15.705 c-0.217-0.749-0.424-1.552-0.626-2.422c-0.025-0.107-0.06-0.211-0.09-0.316c-2.561-11.327-0.215-23.028,6.701-32.684 c10.762-15.028,29.55-20.774,47.332-20.774c29.963,0,46.266,14.74,52.212,29.815L266.144,203.363z M319.525,149.983 c-2.769-5.244-6.37-10.03-10.718-14.256c2.397-6.53,3.024-12.435,1.849-17.605c-0.918-4.039-4.934-6.569-8.976-5.651 c-4.039,0.918-6.569,4.937-5.651,8.976c0.294,1.296,0.251,2.896-0.076,4.707c-11.244-6.338-24.914-9.671-39.954-9.671 c-15.233,0-28.799,3.346-39.948,9.63c-0.323-1.804-0.37-3.398-0.082-4.665c0.918-4.039-1.612-8.058-5.651-8.976 c-4.04-0.917-8.058,1.612-8.976,5.651c-1.176,5.171-0.547,11.078,1.85,17.608c-2.446,2.396-4.707,4.98-6.72,7.791 c-7.87,10.988-11.413,24.368-10.246,37.544c-4.456,1.306-8.696,3.274-12.664,5.876c-6.936-6.248-10.982-12.847-12.024-19.669 c-1.242-8.126-7.828-14.353-16.017-15.143c-0.574-0.055-1.157-0.083-1.732-0.083c-9.283,0-16.956,6.974-17.847,16.222 c-1.636,16.974,5.682,34.088,22.349,52.202c-1.597,4.096-2.983,8.445-4.128,13.04c-2.335,9.371-3.523,19.133-3.615,28.935 c-9.689-0.239-17.275-2.72-22.587-7.407c-6.086-5.369-15.308-5.925-21.999-1.344c-8.059,5.517-10.189,16.878-4.671,24.939 c13.23,19.329,37.172,24.533,55.903,26.32c1.424,4.255,3.068,8.41,4.937,12.424l-52.121,52.121 C75.831,336.403,63.097,297.341,63.097,256c0-106.367,86.536-192.903,192.903-192.903c41.341,0,80.402,12.734,113.498,36.914 L319.525,149.983z M143.057,289.365c-19.691-2.692-32.329-8.894-39.387-19.206c-0.907-1.326-0.556-3.183,0.766-4.088 c1.096-0.75,2.606-0.665,3.604,0.215c8.254,7.281,19.43,11.04,33.231,11.198C141.687,281.469,142.279,285.435,143.057,289.365z"></path></g></g></svg>