<!-- icon666.com - MILLIONS vector ICONS FREE --><svg id="Capa_1" enable-background="new 0 0 512 512" viewBox="0 0 512 512" xmlns="http://www.w3.org/2000/svg"><g><path d="m91.762 458.582c-2.623 12.162.666 25.583 8.917 36.155 8.563 10.971 21.436 17.263 35.319 17.263 20.596 0 38.575-14.012 57.61-28.847 19.652-15.316 39.973-31.153 62.39-31.153 22.397 0 42.75 15.847 62.433 31.173 19.039 14.825 37.022 28.827 57.567 28.827 13.883 0 26.756-6.292 35.318-17.262 8.251-10.573 11.541-23.995 8.918-36.156-4.204-42.396-24.045-102.404-49.555-149.758-24.041-44.627-63.452-97.824-114.681-97.824s-90.639 53.197-114.68 97.823c-25.511 47.354-45.352 107.362-49.556 149.759zm164.236-217.582c28.005 0 60.178 29.907 88.269 82.051 27.554 51.147 43.262 108.088 46.196 139.35.191 2.038 2.279 7.374-2.797 13.878-2.037 2.609-5.714 5.72-11.668 5.72-10.243 0-24.278-10.928-39.137-22.498-22.575-17.577-48.163-37.501-80.863-37.501-32.727 0-58.284 19.917-80.832 37.49-14.853 11.576-28.882 22.51-39.168 22.51-5.954 0-9.632-3.111-11.669-5.721-5.098-6.532-2.985-11.877-2.796-13.877 2.934-31.262 18.642-88.203 46.196-139.35 28.091-52.145 60.264-82.052 88.269-82.052z"></path><path d="m34.083 89.279c-38.331 22.129-43.226 75.13-19.952 115.442 23.321 40.392 71.686 62.536 109.952 40.442 38.467-22.209 43.126-75.303 19.952-115.442-23.392-40.515-71.784-62.479-109.952-40.442zm75 129.904c-21.488 12.405-52.43-.811-68.972-29.462-14.506-25.126-14.712-60.787 8.972-74.461 23.544-13.591 54.341 4.122 68.971 29.461 16.542 28.652 12.517 62.055-8.971 74.462z"></path><path d="m387.913 245.164c38.464 22.208 86.774-.298 109.952-40.442 23.393-40.517 18.213-93.408-19.952-115.442-38.313-22.121-86.664.106-109.952 40.442-23.32 40.391-18.313 93.349 19.952 115.442zm6.029-100.443c14.32-24.801 45.075-43.259 68.971-29.461 23.317 13.462 23.796 48.784 8.972 74.461-16.543 28.651-47.484 41.867-68.972 29.462-21.488-12.407-25.513-45.81-8.971-74.462z"></path><path d="m255.998 181c44.254 0 75-43.442 75-90 0-50.178-33.645-91-75-91s-75 40.822-75 91c0 46.811 30.956 90 75 90zm0-151c24.393 0 45 27.935 45 61 0 33.084-20.187 60-45 60s-45-26.916-45-60c0-33.065 20.607-61 45-61z"></path><path d="m225.998 361h15v15c0 8.284 6.716 15 15 15s15-6.716 15-15v-15h15c8.284 0 15-6.716 15-15s-6.716-15-15-15h-15v-15c0-8.284-6.716-15-15-15s-15 6.716-15 15v15h-15c-8.284 0-15 6.716-15 15s6.716 15 15 15z"></path></g></svg>